<svg xmlns="http://www.w3.org/2000/svg" viewBox="0 0 64 64"><rect width="64" height="64" fill="rgba(255,255,255,0.1)" rx="6"/><path fill="#264de4" d="M19.018 46.4 16.129 14h31.743L44.98 46.4l-13 3.6Z"/><path fill="#2965f1" d="m42.5 44.333 2.471-27.684H32v30.6Z"/><path fill="#ebebeb" d="m22.755 28.666.356 3.974h8.893v-3.974Zm-.354-4.069h9.6v-3.971h-9.965Zm9.6 14.39h-.017l-4.426-1.2-.283-3.169h-3.99l.557 6.24 8.14 2.26.018-.005Z"/><path fill="#fff" d="M31.982 28.666v3.974h4.9l-.461 5.154-4.432 1.2v4.132l8.147-2.258.06-.671.934-10.462.1-1.067.717-8.043h-9.965v3.974h5.6l-.362 4.069Z"/></svg>