<svg xmlns="http://www.w3.org/2000/svg" viewBox="0 0 64 64"><rect width="64" height="64" fill="rgba(255,255,255,0.1)" rx="6"/><path fill="#e74d89" d="M32 15.196a16.8 16.8 0 1 1-16.791 16.811A16.787 16.787 0 0 1 32 15.196Z"/><path fill="#b2215a" d="M32 50a18 18 0 1 1 18-18.007A18.012 18.012 0 0 1 32 50Zm15.173-15.543A22.648 22.648 0 0 0 37.6 33.8a65.55 65.55 0 0 1 2.981 10.954 15.285 15.285 0 0 0 6.6-10.291ZM38 46.171a63.883 63.883 0 0 0-3.277-11.657.26.26 0 0 1-.1.028c-8.677 3.026-11.784 9.039-12.066 9.6A15.3 15.3 0 0 0 32 47.382a14.992 14.992 0 0 0 6-1.211Zm-17.419-3.877c.352-.591 4.57-7.575 12.5-10.151.2-.07.408-.127.6-.183q-.579-1.324-1.252-2.6a56.73 56.73 0 0 1-15.799 2.178c0 .155-.014.309-.014.465a15.394 15.394 0 0 0 3.965 10.291Zm-3.628-13.427a56.836 56.836 0 0 0 14.217-1.873 99.625 99.625 0 0 0-5.7-8.888 15.43 15.43 0 0 0-8.517 10.761ZM28.4 17.069a80.955 80.955 0 0 1 5.738 9c5.47-2.055 7.777-5.153 8.058-5.547A15.317 15.317 0 0 0 32 16.647a15.964 15.964 0 0 0-3.6.422Zm15.5 5.223a20.475 20.475 0 0 1-8.578 6.068l1.027 2.225.337.789a36.088 36.088 0 0 1 10.7.493 15.322 15.322 0 0 0-3.486-9.574Z"/></svg>