<svg xmlns="http://www.w3.org/2000/svg" viewBox="0 0 64 64"><rect width="64" height="64" fill="rgba(255,255,255,0.1)" rx="6"/><path fill="#e34f26" d="M19.028 46.344 16.145 14h31.711l-2.883 32.344L31.965 50"/><path fill="#ef652a" d="m32.036 47.188 10.477-2.886 2.461-27.7H32.036"/><path fill="#ebebeb" d="M32.035 28.625h-5.273l-.352-4.078h5.625v-3.938h-9.984l.07 1.055.984 10.969h8.93Zm0 10.336h-.07l-4.43-1.2-.281-3.164h-3.937l.492 6.258 8.156 2.25h.07Z"/><path fill="#fff" d="M31.965 28.625v4.008h4.922l-.492 5.133-4.43 1.2v4.143l8.156-2.25.07-.7.914-10.477.141-1.055h-9.281Zm0-8.016v3.938h9.633l.07-.844.211-2.039.07-1.055Z"/></svg>