<svg xmlns="http://www.w3.org/2000/svg" viewBox="0 0 64 64"><rect width="64" height="64" fill="rgba(255,255,255,0.1)" rx="6"/><path fill="#f7df1e" d="M14 14h36v36H14Z"/><path d="M38.183 42.126a3.684 3.684 0 0 0 3.337 2.054c1.4 0 2.3-.7 2.3-1.669 0-1.16-.92-1.571-2.463-2.246l-.846-.363c-2.441-1.04-4.063-2.343-4.063-5.1 0-2.537 1.933-4.469 4.954-4.469a5 5 0 0 1 4.811 2.709l-2.634 1.691a2.3 2.3 0 0 0-2.177-1.45 1.472 1.472 0 0 0-1.619 1.45c0 1.015.629 1.426 2.08 2.054l.846.362c2.874 1.233 4.5 2.489 4.5 5.314 0 3.046-2.393 4.714-5.606 4.714a6.5 6.5 0 0 1-6.165-3.459Zm-11.95.293c.531.943 1.015 1.74 2.177 1.74 1.111 0 1.813-.435 1.813-2.126v-11.5h3.383v11.549c0 3.5-2.054 5.1-5.051 5.1a5.252 5.252 0 0 1-5.075-3.09Z"/></svg>