<svg xmlns="http://www.w3.org/2000/svg" viewBox="0 0 64 64"><rect width="64" height="64" fill="rgba(255,255,255,0.1)" rx="6"/><path fill="#fff" d="M46.747 14.647h-29.5a2.6 2.6 0 0 0-2.6 2.6v29.5a2.6 2.6 0 0 0 2.6 2.6h29.5a2.6 2.6 0 0 0 2.6-2.6v-29.5a2.6 2.6 0 0 0-2.6-2.6Z"/><path fill="#0a66c2" d="M47.3 14H16.7a2.7 2.7 0 0 0-2.7 2.7v30.6a2.7 2.7 0 0 0 2.7 2.7h30.6a2.7 2.7 0 0 0 2.7-2.7V16.7a2.7 2.7 0 0 0-2.7-2.7ZM24.8 44.6h-5.4V28.4h5.4Zm-2.7-19.35a3.15 3.15 0 1 1 3.24-3.15 3.2 3.2 0 0 1-3.24 3.15ZM44.6 44.6h-5.4v-8.532c0-2.556-1.08-3.474-2.484-3.474a3.132 3.132 0 0 0-2.916 3.348 1.188 1.188 0 0 0 0 .252V44.6h-5.4V28.4h5.22v2.34a5.6 5.6 0 0 1 4.86-2.52c2.79 0 6.048 1.548 6.048 6.588Z"/></svg>