<svg width="114" height="34" viewBox="0 0 114 34" fill="none" xmlns="http://www.w3.org/2000/svg">
<rect width="113.75" height="34" rx="6" fill="white" fill-opacity="0.1"/>
<g clip-path="url(#clip0_2_35)">
<path d="M19.5255 23.7501H16.2602V13.2349H19.5255V23.7501ZM17.8911 11.8005C16.8469 11.8005 16 10.9357 16 9.89156C16 9.39002 16.1992 8.90902 16.5539 8.55438C16.9085 8.19974 17.3895 8.0005 17.8911 8.0005C18.3926 8.0005 18.8736 8.19974 19.2282 8.55438C19.5829 8.90902 19.7821 9.39002 19.7821 9.89156C19.7821 10.9357 18.9348 11.8005 17.8911 11.8005ZM31.7465 23.7501H28.4882V18.6314C28.4882 17.4115 28.4636 15.847 26.7905 15.847C25.0928 15.847 24.8326 17.1724 24.8326 18.5435V23.7501H21.5709V13.2349H24.7026V14.6693H24.7483C25.1842 13.8431 26.2491 12.9712 27.8378 12.9712C31.1425 12.9712 31.75 15.1474 31.75 17.974V23.7501H31.7465Z" fill="white"/>
</g>
<path d="M42.9829 22.5V12.3182H44.2159V21.4062H48.9488V22.5H42.9829ZM50.6988 22.5V14.8636H51.8721V22.5H50.6988ZM51.2954 13.5909C51.0667 13.5909 50.8695 13.513 50.7038 13.3572C50.5414 13.2015 50.4602 13.0142 50.4602 12.7954C50.4602 12.5767 50.5414 12.3894 50.7038 12.2337C50.8695 12.0779 51.0667 12 51.2954 12C51.5241 12 51.7197 12.0779 51.8821 12.2337C52.0478 12.3894 52.1307 12.5767 52.1307 12.7954C52.1307 13.0142 52.0478 13.2015 51.8821 13.3572C51.7197 13.513 51.5241 13.5909 51.2954 13.5909ZM55.1944 17.9062V22.5H54.0211V14.8636H55.1546V16.0568H55.2541C55.433 15.669 55.7048 15.3575 56.0694 15.1222C56.434 14.8835 56.9046 14.7642 57.4813 14.7642C57.9984 14.7642 58.4508 14.8703 58.8386 15.0824C59.2264 15.2912 59.528 15.6094 59.7434 16.0369C59.9589 16.4612 60.0666 16.9981 60.0666 17.6477V22.5H58.8933V17.7273C58.8933 17.1274 58.7375 16.66 58.4259 16.3253C58.1144 15.9872 57.6868 15.8182 57.1433 15.8182C56.7687 15.8182 56.434 15.8994 56.139 16.0618C55.8473 16.2242 55.617 16.4612 55.448 16.7727C55.2789 17.0843 55.1944 17.4621 55.1944 17.9062ZM63.3043 19.7159L63.2844 18.2642H63.5231L66.864 14.8636H68.3157L64.756 18.4631H64.6566L63.3043 19.7159ZM62.2106 22.5V12.3182H63.3839V22.5H62.2106ZM67.0628 22.5L64.0799 18.7216L64.9151 17.9062L68.5543 22.5H67.0628ZM72.7131 22.6591C71.9773 22.6591 71.3426 22.4967 70.8089 22.1719C70.2786 21.8437 69.8693 21.3864 69.581 20.7997C69.2959 20.2097 69.1534 19.5237 69.1534 18.7415C69.1534 17.9593 69.2959 17.2699 69.581 16.6733C69.8693 16.0734 70.2703 15.6061 70.7841 15.2713C71.3011 14.9332 71.9043 14.7642 72.5937 14.7642C72.9915 14.7642 73.3842 14.8305 73.772 14.9631C74.1598 15.0956 74.5128 15.3111 74.831 15.6094C75.1491 15.9043 75.4027 16.2954 75.5916 16.7827C75.7805 17.2699 75.875 17.8698 75.875 18.5824V19.0795H69.9886V18.0653H74.6818C74.6818 17.6345 74.5956 17.25 74.4233 16.9119C74.2542 16.5739 74.0123 16.307 73.6974 16.1115C73.3859 15.9159 73.018 15.8182 72.5937 15.8182C72.1264 15.8182 71.722 15.9342 71.3807 16.1662C71.0426 16.3949 70.7824 16.6932 70.6001 17.0611C70.4178 17.429 70.3267 17.8234 70.3267 18.2443V18.9204C70.3267 19.4972 70.4261 19.986 70.625 20.3871C70.8272 20.7848 71.1072 21.0881 71.4652 21.2969C71.8231 21.5024 72.2391 21.6051 72.7131 21.6051C73.0213 21.6051 73.2997 21.562 73.5483 21.4758C73.8002 21.3864 74.0173 21.2538 74.1996 21.0781C74.3819 20.8991 74.5227 20.6771 74.6221 20.4119L75.7557 20.7301C75.6363 21.1146 75.4358 21.4526 75.1541 21.7443C74.8724 22.0327 74.5244 22.258 74.1101 22.4204C73.6958 22.5795 73.2301 22.6591 72.7131 22.6591ZM80.5433 22.6591C79.9069 22.6591 79.3452 22.4983 78.8579 22.1768C78.3707 21.852 77.9896 21.3946 77.7145 20.8047C77.4394 20.2114 77.3018 19.5104 77.3018 18.7017C77.3018 17.8996 77.4394 17.2036 77.7145 16.6136C77.9896 16.0237 78.3724 15.5679 78.8629 15.2464C79.3534 14.9249 79.9202 14.7642 80.5632 14.7642C81.0604 14.7642 81.4531 14.8471 81.7415 15.0128C82.0331 15.1752 82.2552 15.3608 82.4077 15.5696C82.5634 15.7751 82.6844 15.9441 82.7706 16.0767H82.87V12.3182H84.0433V22.5H82.9098V21.3267H82.7706C82.6844 21.4659 82.5618 21.6416 82.4027 21.8537C82.2436 22.0625 82.0166 22.2498 81.7216 22.4155C81.4266 22.5779 81.0338 22.6591 80.5433 22.6591ZM80.7024 21.6051C81.173 21.6051 81.5708 21.4825 81.8956 21.2372C82.2204 20.9886 82.4673 20.6456 82.6363 20.2081C82.8054 19.7673 82.8899 19.2585 82.8899 18.6818C82.8899 18.1117 82.807 17.6129 82.6413 17.1854C82.4756 16.7545 82.2303 16.4197 81.9055 16.1811C81.5807 15.9391 81.1797 15.8182 80.7024 15.8182C80.2052 15.8182 79.7909 15.9458 79.4595 16.201C79.1314 16.4529 78.8845 16.7959 78.7187 17.2301C78.5563 17.661 78.4751 18.1449 78.4751 18.6818C78.4751 19.2254 78.558 19.7192 78.7237 20.1633C78.8927 20.6042 79.1413 20.9555 79.4694 21.2173C79.8009 21.4758 80.2119 21.6051 80.7024 21.6051ZM87.7471 12.3182V22.5H86.5142V12.3182H87.7471ZM91.2335 17.9062V22.5H90.0602V14.8636H91.1937V16.0568H91.2931C91.4721 15.669 91.7439 15.3575 92.1085 15.1222C92.4731 14.8835 92.9437 14.7642 93.5204 14.7642C94.0374 14.7642 94.4899 14.8703 94.8776 15.0824C95.2654 15.2912 95.567 15.6094 95.7825 16.0369C95.9979 16.4612 96.1056 16.9981 96.1056 17.6477V22.5H94.9323V17.7273C94.9323 17.1274 94.7766 16.66 94.465 16.3253C94.1535 15.9872 93.7259 15.8182 93.1823 15.8182C92.8078 15.8182 92.4731 15.8994 92.1781 16.0618C91.8864 16.2242 91.6561 16.4612 91.487 16.7727C91.318 17.0843 91.2335 17.4621 91.2335 17.9062Z" fill="white"/>
<defs>
<clipPath id="clip0_2_35">
<rect width="15.75" height="18" fill="white" transform="translate(16 8)"/>
</clipPath>
</defs>
</svg>
