<svg width="151" height="34" viewBox="0 0 151 34" fill="none" xmlns="http://www.w3.org/2000/svg">
<rect width="150.5" height="34" rx="6" fill="white" fill-opacity="0.1"/>
<g clip-path="url(#clip0_2_48)">
<path d="M27.25 8H18.25C17.0072 8 16 9.00723 16 10.25V23.75C16 24.9928 17.0072 26 18.25 26H27.25C28.4928 26 29.5 24.9928 29.5 23.75V10.25C29.5 9.00723 28.491 8 27.25 8ZM23.3125 20.375H18.8125C18.5017 20.375 18.25 20.1219 18.25 19.8125C18.25 19.5031 18.5017 19.25 18.8125 19.25H23.3125C23.6232 19.25 23.875 19.5019 23.875 19.8125C23.875 20.1231 23.6219 20.375 23.3125 20.375ZM26.6875 17H18.8125C18.5017 17 18.25 16.7469 18.25 16.4375C18.25 16.1281 18.5017 15.875 18.8125 15.875H26.6875C26.9969 15.875 27.25 16.1281 27.25 16.4375C27.25 16.7469 26.9969 17 26.6875 17ZM26.6875 13.625H18.8125C18.5017 13.625 18.25 13.3719 18.25 13.0625C18.25 12.7531 18.5017 12.5 18.8125 12.5H26.6875C26.9969 12.5 27.25 12.7531 27.25 13.0625C27.25 13.3719 26.9969 13.625 26.6875 13.625Z" fill="white"/>
</g>
<path d="M49.3239 17.4091C49.3239 18.483 49.13 19.411 48.7422 20.1932C48.3544 20.9754 47.8224 21.5786 47.1463 22.0028C46.4702 22.4271 45.6979 22.6392 44.8295 22.6392C43.9612 22.6392 43.1889 22.4271 42.5128 22.0028C41.8366 21.5786 41.3047 20.9754 40.9169 20.1932C40.5291 19.411 40.3352 18.483 40.3352 17.4091C40.3352 16.3352 40.5291 15.4072 40.9169 14.625C41.3047 13.8428 41.8366 13.2396 42.5128 12.8153C43.1889 12.3911 43.9612 12.179 44.8295 12.179C45.6979 12.179 46.4702 12.3911 47.1463 12.8153C47.8224 13.2396 48.3544 13.8428 48.7422 14.625C49.13 15.4072 49.3239 16.3352 49.3239 17.4091ZM48.1307 17.4091C48.1307 16.5275 47.9832 15.7834 47.6882 15.1768C47.3965 14.5703 47.0005 14.1113 46.5 13.7997C46.0028 13.4882 45.446 13.3324 44.8295 13.3324C44.2131 13.3324 43.6546 13.4882 43.1541 13.7997C42.657 14.1113 42.2609 14.5703 41.9659 15.1768C41.6742 15.7834 41.5284 16.5275 41.5284 17.4091C41.5284 18.2907 41.6742 19.0348 41.9659 19.6413C42.2609 20.2479 42.657 20.7069 43.1541 21.0185C43.6546 21.33 44.2131 21.4858 44.8295 21.4858C45.446 21.4858 46.0028 21.33 46.5 21.0185C47.0005 20.7069 47.3965 20.2479 47.6882 19.6413C47.9832 19.0348 48.1307 18.2907 48.1307 17.4091ZM52.4112 17.9062V22.5H51.2379V14.8636H52.3714V16.0568H52.4709C52.6499 15.669 52.9216 15.3575 53.2862 15.1222C53.6508 14.8835 54.1214 14.7642 54.6981 14.7642C55.2152 14.7642 55.6676 14.8703 56.0554 15.0824C56.4432 15.2912 56.7448 15.6094 56.9602 16.0369C57.1757 16.4612 57.2834 16.9981 57.2834 17.6477V22.5H56.1101V17.7273C56.1101 17.1274 55.9543 16.66 55.6427 16.3253C55.3312 15.9872 54.9036 15.8182 54.3601 15.8182C53.9856 15.8182 53.6508 15.8994 53.3558 16.0618C53.0641 16.2242 52.8338 16.4612 52.6648 16.7727C52.4957 17.0843 52.4112 17.4621 52.4112 17.9062ZM60.6007 12.3182V22.5H59.4274V12.3182H60.6007ZM62.7496 22.5V14.8636H63.9229V22.5H62.7496ZM63.3462 13.5909C63.1175 13.5909 62.9203 13.513 62.7546 13.3572C62.5922 13.2015 62.511 13.0142 62.511 12.7955C62.511 12.5767 62.5922 12.3894 62.7546 12.2337C62.9203 12.0779 63.1175 12 63.3462 12C63.5749 12 63.7705 12.0779 63.9329 12.2337C64.0986 12.3894 64.1815 12.5767 64.1815 12.7955C64.1815 13.0142 64.0986 13.2015 63.9329 13.3572C63.7705 13.513 63.5749 13.5909 63.3462 13.5909ZM67.2452 17.9062V22.5H66.0719V14.8636H67.2054V16.0568H67.3049C67.4838 15.669 67.7556 15.3575 68.1202 15.1222C68.4848 14.8835 68.9554 14.7642 69.5321 14.7642C70.0492 14.7642 70.5016 14.8703 70.8894 15.0824C71.2772 15.2912 71.5788 15.6094 71.7942 16.0369C72.0096 16.4612 72.1174 16.9981 72.1174 17.6477V22.5H70.9441V17.7273C70.9441 17.1274 70.7883 16.66 70.4767 16.3253C70.1652 15.9872 69.7376 15.8182 69.1941 15.8182C68.8195 15.8182 68.4848 15.8994 68.1898 16.0618C67.8981 16.2242 67.6678 16.4612 67.4987 16.7727C67.3297 17.0843 67.2452 17.4621 67.2452 17.9062ZM77.4631 22.6591C76.7273 22.6591 76.0926 22.4967 75.5589 22.1719C75.0286 21.8438 74.6193 21.3864 74.331 20.7997C74.0459 20.2098 73.9034 19.5237 73.9034 18.7415C73.9034 17.9593 74.0459 17.2699 74.331 16.6733C74.6193 16.0734 75.0204 15.6061 75.5341 15.2713C76.0511 14.9332 76.6543 14.7642 77.3437 14.7642C77.7415 14.7642 78.1342 14.8305 78.522 14.9631C78.9098 15.0956 79.2628 15.3111 79.581 15.6094C79.8991 15.9044 80.1527 16.2955 80.3416 16.7827C80.5305 17.2699 80.625 17.8698 80.625 18.5824V19.0795H74.7386V18.0653H79.4318C79.4318 17.6345 79.3456 17.25 79.1733 16.9119C79.0043 16.5739 78.7623 16.3071 78.4474 16.1115C78.1359 15.916 77.768 15.8182 77.3437 15.8182C76.8764 15.8182 76.4721 15.9342 76.1307 16.1662C75.7926 16.3949 75.5324 16.6932 75.3501 17.0611C75.1678 17.429 75.0767 17.8234 75.0767 18.2443V18.9205C75.0767 19.4972 75.1761 19.986 75.375 20.3871C75.5772 20.7848 75.8572 21.0881 76.2152 21.2969C76.5731 21.5024 76.9891 21.6051 77.4631 21.6051C77.7713 21.6051 78.0497 21.562 78.2983 21.4759C78.5502 21.3864 78.7673 21.2538 78.9496 21.0781C79.1319 20.8991 79.2727 20.6771 79.3722 20.4119L80.5057 20.7301C80.3864 21.1146 80.1858 21.4527 79.9041 21.7443C79.6224 22.0327 79.2744 22.258 78.8601 22.4205C78.4458 22.5795 77.9801 22.6591 77.4631 22.6591ZM86.3473 22.5V14.8636H87.4808V16.017H87.5604C87.6996 15.6392 87.9515 15.3326 88.316 15.0973C88.6806 14.862 89.0916 14.7443 89.549 14.7443C89.6352 14.7443 89.7429 14.746 89.8722 14.7493C90.0014 14.7526 90.0992 14.7576 90.1655 14.7642V15.9574C90.1257 15.9474 90.0346 15.9325 89.892 15.9126C89.7528 15.8894 89.6053 15.8778 89.4496 15.8778C89.0784 15.8778 88.7469 15.9557 88.4552 16.1115C88.1669 16.264 87.9382 16.4761 87.7692 16.7479C87.6034 17.0163 87.5206 17.3229 87.5206 17.6676V22.5H86.3473ZM94.5256 22.6591C93.7898 22.6591 93.1551 22.4967 92.6214 22.1719C92.0911 21.8438 91.6818 21.3864 91.3935 20.7997C91.1084 20.2098 90.9659 19.5237 90.9659 18.7415C90.9659 17.9593 91.1084 17.2699 91.3935 16.6733C91.6818 16.0734 92.0829 15.6061 92.5966 15.2713C93.1136 14.9332 93.7168 14.7642 94.4062 14.7642C94.804 14.7642 95.1967 14.8305 95.5845 14.9631C95.9723 15.0956 96.3253 15.3111 96.6435 15.6094C96.9616 15.9044 97.2152 16.2955 97.4041 16.7827C97.593 17.2699 97.6875 17.8698 97.6875 18.5824V19.0795H91.8011V18.0653H96.4943C96.4943 17.6345 96.4081 17.25 96.2358 16.9119C96.0668 16.5739 95.8248 16.3071 95.5099 16.1115C95.1984 15.916 94.8305 15.8182 94.4062 15.8182C93.9389 15.8182 93.5346 15.9342 93.1932 16.1662C92.8551 16.3949 92.5949 16.6932 92.4126 17.0611C92.2303 17.429 92.1392 17.8234 92.1392 18.2443V18.9205C92.1392 19.4972 92.2386 19.986 92.4375 20.3871C92.6397 20.7848 92.9197 21.0881 93.2777 21.2969C93.6356 21.5024 94.0516 21.6051 94.5256 21.6051C94.8338 21.6051 95.1122 21.562 95.3608 21.4759C95.6127 21.3864 95.8298 21.2538 96.0121 21.0781C96.1944 20.8991 96.3352 20.6771 96.4347 20.4119L97.5682 20.7301C97.4489 21.1146 97.2483 21.4527 96.9666 21.7443C96.6849 22.0327 96.3369 22.258 95.9226 22.4205C95.5083 22.5795 95.0426 22.6591 94.5256 22.6591ZM104.881 16.5739L103.827 16.8722C103.761 16.6965 103.663 16.5258 103.534 16.3601C103.408 16.1911 103.236 16.0518 103.017 15.9425C102.798 15.8331 102.518 15.7784 102.177 15.7784C101.71 15.7784 101.32 15.8861 101.009 16.1016C100.7 16.3137 100.546 16.5838 100.546 16.9119C100.546 17.2036 100.652 17.4339 100.864 17.603C101.076 17.772 101.408 17.9129 101.859 18.0256L102.992 18.304C103.675 18.4697 104.184 18.7232 104.518 19.0646C104.853 19.4027 105.021 19.8385 105.021 20.3722C105.021 20.8097 104.895 21.2008 104.643 21.5455C104.394 21.8902 104.046 22.1619 103.599 22.3608C103.151 22.5597 102.631 22.6591 102.038 22.6591C101.259 22.6591 100.614 22.4901 100.104 22.152C99.5933 21.8139 99.2701 21.3201 99.1342 20.6705L100.248 20.392C100.354 20.803 100.554 21.1113 100.849 21.3168C101.148 21.5223 101.537 21.625 102.018 21.625C102.565 21.625 102.999 21.509 103.32 21.277C103.645 21.0417 103.808 20.7599 103.808 20.4318C103.808 20.1667 103.715 19.9446 103.529 19.7656C103.344 19.5833 103.058 19.4474 102.674 19.358L101.401 19.0597C100.702 18.8939 100.188 18.6371 99.8601 18.2891C99.5353 17.9377 99.3729 17.4986 99.3729 16.9716C99.3729 16.5407 99.4938 16.1596 99.7358 15.8281C99.9811 15.4967 100.314 15.2365 100.735 15.0476C101.159 14.8587 101.64 14.7642 102.177 14.7642C102.933 14.7642 103.526 14.9299 103.957 15.2614C104.391 15.5928 104.699 16.0303 104.881 16.5739ZM111.599 19.3778V14.8636H112.773V22.5H111.599V21.2074H111.52C111.341 21.5952 111.062 21.925 110.684 22.1967C110.307 22.4652 109.829 22.5994 109.253 22.5994C108.775 22.5994 108.351 22.495 107.98 22.2862C107.609 22.0741 107.317 21.7559 107.105 21.3317C106.893 20.9041 106.787 20.3655 106.787 19.7159V14.8636H107.96V19.6364C107.96 20.1932 108.116 20.6373 108.427 20.9688C108.742 21.3002 109.143 21.4659 109.63 21.4659C109.922 21.4659 110.219 21.3913 110.52 21.2422C110.825 21.093 111.081 20.8643 111.286 20.5561C111.495 20.2479 111.599 19.8551 111.599 19.3778ZM114.922 22.5V14.8636H116.055V16.0568H116.154C116.314 15.6491 116.57 15.3326 116.925 15.1072C117.28 14.8786 117.706 14.7642 118.203 14.7642C118.707 14.7642 119.126 14.8786 119.461 15.1072C119.799 15.3326 120.062 15.6491 120.251 16.0568H120.331C120.526 15.6624 120.819 15.3492 121.211 15.1172C121.602 14.8819 122.071 14.7642 122.618 14.7642C123.3 14.7642 123.859 14.978 124.293 15.4055C124.727 15.8298 124.944 16.491 124.944 17.3892V22.5H123.771V17.3892C123.771 16.8258 123.617 16.4231 123.309 16.1811C123 15.9392 122.637 15.8182 122.22 15.8182C121.683 15.8182 121.267 15.9806 120.972 16.3054C120.677 16.6269 120.529 17.0346 120.529 17.5284V22.5H119.336V17.2699C119.336 16.8357 119.195 16.486 118.914 16.2209C118.632 15.9524 118.269 15.8182 117.825 15.8182C117.52 15.8182 117.235 15.8994 116.97 16.0618C116.708 16.2242 116.496 16.4496 116.333 16.7379C116.174 17.023 116.095 17.3527 116.095 17.7273V22.5H114.922ZM130.291 22.6591C129.555 22.6591 128.921 22.4967 128.387 22.1719C127.857 21.8438 127.447 21.3864 127.159 20.7997C126.874 20.2098 126.732 19.5237 126.732 18.7415C126.732 17.9593 126.874 17.2699 127.159 16.6733C127.447 16.0734 127.848 15.6061 128.362 15.2713C128.879 14.9332 129.482 14.7642 130.172 14.7642C130.57 14.7642 130.962 14.8305 131.35 14.9631C131.738 15.0956 132.091 15.3111 132.409 15.6094C132.727 15.9044 132.981 16.2955 133.17 16.7827C133.359 17.2699 133.453 17.8698 133.453 18.5824V19.0795H127.567V18.0653H132.26C132.26 17.6345 132.174 17.25 132.001 16.9119C131.832 16.5739 131.59 16.3071 131.276 16.1115C130.964 15.916 130.596 15.8182 130.172 15.8182C129.705 15.8182 129.3 15.9342 128.959 16.1662C128.621 16.3949 128.361 16.6932 128.178 17.0611C127.996 17.429 127.905 17.8234 127.905 18.2443V18.9205C127.905 19.4972 128.004 19.986 128.203 20.3871C128.405 20.7848 128.685 21.0881 129.043 21.2969C129.401 21.5024 129.817 21.6051 130.291 21.6051C130.599 21.6051 130.878 21.562 131.126 21.4759C131.378 21.3864 131.595 21.2538 131.778 21.0781C131.96 20.8991 132.101 20.6771 132.2 20.4119L133.334 20.7301C133.214 21.1146 133.014 21.4527 132.732 21.7443C132.451 22.0327 132.103 22.258 131.688 22.4205C131.274 22.5795 130.808 22.6591 130.291 22.6591Z" fill="white"/>
<defs>
<clipPath id="clip0_2_48">
<rect width="13.5" height="18" fill="white" transform="translate(16 8)"/>
</clipPath>
</defs>
</svg>
