<svg width="140" height="34" viewBox="0 0 140 34" fill="none" xmlns="http://www.w3.org/2000/svg">
<rect width="139.75" height="34" rx="6" fill="white" fill-opacity="0.1"/>
<g clip-path="url(#clip0_2_53)">
<path d="M31.75 19.8125V9.6875C31.75 8.75551 30.9941 8 30.0625 8H19.375C17.511 8 16 9.51102 16 11.375V22.625C16 24.489 17.511 26 19.375 26H30.625C31.2462 26 31.75 25.4962 31.75 24.9066C31.75 24.4946 31.5177 24.1501 31.1875 23.9539V21.0936C31.532 20.7547 31.75 20.3117 31.75 19.8125ZM29.5 23.75H19.375C18.7538 23.75 18.25 23.2462 18.25 22.625C18.25 22.0038 18.7538 21.5 19.375 21.5H29.5V23.75Z" fill="white"/>
</g>
<path d="M42.983 22.5V12.3182H46.4233C47.2188 12.3182 47.8717 12.4541 48.3821 12.7259C48.8925 12.9943 49.2704 13.3639 49.5156 13.8345C49.7609 14.3052 49.8835 14.8404 49.8835 15.4403C49.8835 16.0402 49.7609 16.5722 49.5156 17.0362C49.2704 17.5002 48.8942 17.8648 48.3871 18.13C47.88 18.3918 47.232 18.5227 46.4432 18.5227H43.6591V17.4091H46.4034C46.947 17.4091 47.3845 17.3295 47.7159 17.1705C48.0507 17.0114 48.2926 16.786 48.4418 16.4943C48.5942 16.1993 48.6705 15.848 48.6705 15.4403C48.6705 15.0327 48.5942 14.6764 48.4418 14.3714C48.2893 14.0665 48.0457 13.8312 47.7109 13.6655C47.3762 13.4964 46.9337 13.4119 46.3835 13.4119H44.2159V22.5H42.983ZM47.7756 17.9261L50.2812 22.5H48.8494L46.3835 17.9261H47.7756ZM54.8986 22.6591C54.1628 22.6591 53.5281 22.4967 52.9945 22.1719C52.4642 21.8438 52.0549 21.3864 51.7665 20.7997C51.4815 20.2098 51.339 19.5237 51.339 18.7415C51.339 17.9593 51.4815 17.2699 51.7665 16.6733C52.0549 16.0734 52.4559 15.6061 52.9696 15.2713C53.4867 14.9332 54.0899 14.7642 54.7793 14.7642C55.177 14.7642 55.5698 14.8305 55.9576 14.9631C56.3453 15.0956 56.6983 15.3111 57.0165 15.6094C57.3347 15.9044 57.5882 16.2955 57.7772 16.7827C57.9661 17.2699 58.0605 17.8698 58.0605 18.5824V19.0795H52.1742V18.0653H56.8674C56.8674 17.6345 56.7812 17.25 56.6088 16.9119C56.4398 16.5739 56.1979 16.3071 55.883 16.1115C55.5714 15.916 55.2035 15.8182 54.7793 15.8182C54.312 15.8182 53.9076 15.9342 53.5662 16.1662C53.2282 16.3949 52.968 16.6932 52.7857 17.0611C52.6034 17.429 52.5123 17.8234 52.5123 18.2443V18.9205C52.5123 19.4972 52.6117 19.986 52.8105 20.3871C53.0127 20.7848 53.2928 21.0881 53.6507 21.2969C54.0087 21.5024 54.4247 21.6051 54.8986 21.6051C55.2069 21.6051 55.4853 21.562 55.7338 21.4759C55.9857 21.3864 56.2028 21.2538 56.3851 21.0781C56.5674 20.8991 56.7083 20.6771 56.8077 20.4119L57.9412 20.7301C57.8219 21.1146 57.6214 21.4527 57.3397 21.7443C57.0579 22.0327 56.7099 22.258 56.2956 22.4205C55.8813 22.5795 55.4157 22.6591 54.8986 22.6591ZM59.8453 25.3636V14.8636H60.9789V16.0767H61.1181C61.2042 15.9441 61.3236 15.7751 61.476 15.5696C61.6318 15.3608 61.8539 15.1752 62.1422 15.0128C62.4339 14.8471 62.8283 14.7642 63.3255 14.7642C63.9685 14.7642 64.5352 14.925 65.0257 15.2464C65.5163 15.5679 65.8991 16.0237 66.1742 16.6136C66.4493 17.2036 66.5868 17.8996 66.5868 18.7017C66.5868 19.5104 66.4493 20.2114 66.1742 20.8047C65.8991 21.3946 65.5179 21.852 65.0307 22.1768C64.5435 22.4983 63.9817 22.6591 63.3453 22.6591C62.8548 22.6591 62.4621 22.5779 62.1671 22.4155C61.8721 22.2498 61.6451 22.0625 61.486 21.8537C61.3269 21.6416 61.2042 21.4659 61.1181 21.3267H61.0186V25.3636H59.8453ZM60.9988 18.6818C60.9988 19.2585 61.0833 19.7673 61.2523 20.2081C61.4213 20.6456 61.6683 20.9886 61.9931 21.2372C62.3179 21.4825 62.7156 21.6051 63.1863 21.6051C63.6768 21.6051 64.0861 21.4759 64.4142 21.2173C64.7457 20.9555 64.9943 20.6042 65.16 20.1634C65.329 19.7192 65.4135 19.2254 65.4135 18.6818C65.4135 18.1449 65.3307 17.661 65.165 17.2301C65.0025 16.7959 64.7556 16.4529 64.4242 16.201C64.0961 15.9458 63.6834 15.8182 63.1863 15.8182C62.709 15.8182 62.3079 15.9392 61.9831 16.1811C61.6583 16.4197 61.4131 16.7545 61.2473 17.1854C61.0816 17.6129 60.9988 18.1117 60.9988 18.6818ZM71.4789 22.6591C70.7895 22.6591 70.1846 22.495 69.6642 22.1669C69.1472 21.8388 68.7428 21.3797 68.4512 20.7898C68.1628 20.1998 68.0186 19.5104 68.0186 18.7216C68.0186 17.9261 68.1628 17.2318 68.4512 16.6385C68.7428 16.0452 69.1472 15.5845 69.6642 15.2564C70.1846 14.9283 70.7895 14.7642 71.4789 14.7642C72.1683 14.7642 72.7715 14.9283 73.2885 15.2564C73.8089 15.5845 74.2132 16.0452 74.5016 16.6385C74.7933 17.2318 74.9391 17.9261 74.9391 18.7216C74.9391 19.5104 74.7933 20.1998 74.5016 20.7898C74.2132 21.3797 73.8089 21.8388 73.2885 22.1669C72.7715 22.495 72.1683 22.6591 71.4789 22.6591ZM71.4789 21.6051C72.0025 21.6051 72.4334 21.4709 72.7715 21.2024C73.1096 20.9339 73.3598 20.581 73.5222 20.1435C73.6846 19.706 73.7658 19.232 73.7658 18.7216C73.7658 18.2112 73.6846 17.7356 73.5222 17.2947C73.3598 16.8539 73.1096 16.4976 72.7715 16.2259C72.4334 15.9541 72.0025 15.8182 71.4789 15.8182C70.9552 15.8182 70.5243 15.9541 70.1863 16.2259C69.8482 16.4976 69.598 16.8539 69.4355 17.2947C69.2731 17.7356 69.1919 18.2112 69.1919 18.7216C69.1919 19.232 69.2731 19.706 69.4355 20.1435C69.598 20.581 69.8482 20.9339 70.1863 21.2024C70.5243 21.4709 70.9552 21.6051 71.4789 21.6051ZM82.1392 16.5739L81.0852 16.8722C81.0189 16.6965 80.9212 16.5258 80.7919 16.3601C80.666 16.1911 80.4936 16.0518 80.2749 15.9425C80.0561 15.8331 79.776 15.7784 79.4347 15.7784C78.9673 15.7784 78.5779 15.8861 78.2663 16.1016C77.9581 16.3137 77.804 16.5838 77.804 16.9119C77.804 17.2036 77.91 17.4339 78.1222 17.603C78.3343 17.772 78.6657 17.9129 79.1165 18.0256L80.25 18.304C80.9328 18.4697 81.4415 18.7232 81.7763 19.0646C82.111 19.4027 82.2784 19.8385 82.2784 20.3722C82.2784 20.8097 82.1525 21.2008 81.9006 21.5455C81.652 21.8902 81.304 22.1619 80.8565 22.3608C80.4091 22.5597 79.8887 22.6591 79.2955 22.6591C78.5166 22.6591 77.8719 22.4901 77.3615 22.152C76.8511 21.8139 76.5279 21.3201 76.392 20.6705L77.5057 20.392C77.6117 20.803 77.8123 21.1113 78.1072 21.3168C78.4055 21.5223 78.795 21.625 79.2756 21.625C79.8224 21.625 80.2566 21.509 80.5781 21.277C80.9029 21.0417 81.0653 20.7599 81.0653 20.4318C81.0653 20.1667 80.9725 19.9446 80.7869 19.7656C80.6013 19.5833 80.3163 19.4474 79.9318 19.358L78.6591 19.0597C77.9598 18.8939 77.446 18.6371 77.1179 18.2891C76.7931 17.9377 76.6307 17.4986 76.6307 16.9716C76.6307 16.5407 76.7517 16.1596 76.9936 15.8281C77.2389 15.4967 77.572 15.2365 77.9929 15.0476C78.4171 14.8587 78.8977 14.7642 79.4347 14.7642C80.1903 14.7642 80.7836 14.9299 81.2145 15.2614C81.6487 15.5928 81.9569 16.0303 82.1392 16.5739ZM84.0446 22.5V14.8636H85.2179V22.5H84.0446ZM84.6412 13.5909C84.4125 13.5909 84.2153 13.513 84.0495 13.3572C83.8871 13.2015 83.8059 13.0142 83.8059 12.7955C83.8059 12.5767 83.8871 12.3894 84.0495 12.2337C84.2153 12.0779 84.4125 12 84.6412 12C84.8699 12 85.0654 12.0779 85.2278 12.2337C85.3935 12.3894 85.4764 12.5767 85.4764 12.7955C85.4764 13.0142 85.3935 13.2015 85.2278 13.3572C85.0654 13.513 84.8699 13.5909 84.6412 13.5909ZM90.6879 14.8636V15.858H86.7305V14.8636H90.6879ZM87.8839 13.0341H89.0572V20.3125C89.0572 20.6439 89.1052 20.8925 89.2013 21.0582C89.3008 21.2206 89.4267 21.33 89.5792 21.3864C89.735 21.4394 89.899 21.4659 90.0714 21.4659C90.2006 21.4659 90.3067 21.4593 90.3896 21.446C90.4724 21.4295 90.5387 21.4162 90.5884 21.4062L90.8271 22.4602C90.7475 22.4901 90.6365 22.5199 90.494 22.5497C90.3514 22.5829 90.1708 22.5994 89.9521 22.5994C89.6206 22.5994 89.2958 22.5282 88.9776 22.3857C88.6628 22.2431 88.4009 22.026 88.1921 21.7344C87.9866 21.4427 87.8839 21.0748 87.8839 20.6307V13.0341ZM95.473 22.6591C94.7836 22.6591 94.1787 22.495 93.6584 22.1669C93.1413 21.8388 92.737 21.3797 92.4453 20.7898C92.157 20.1998 92.0128 19.5104 92.0128 18.7216C92.0128 17.9261 92.157 17.2318 92.4453 16.6385C92.737 16.0452 93.1413 15.5845 93.6584 15.2564C94.1787 14.9283 94.7836 14.7642 95.473 14.7642C96.1624 14.7642 96.7656 14.9283 97.2827 15.2564C97.803 15.5845 98.2074 16.0452 98.4957 16.6385C98.7874 17.2318 98.9332 17.9261 98.9332 18.7216C98.9332 19.5104 98.7874 20.1998 98.4957 20.7898C98.2074 21.3797 97.803 21.8388 97.2827 22.1669C96.7656 22.495 96.1624 22.6591 95.473 22.6591ZM95.473 21.6051C95.9967 21.6051 96.4276 21.4709 96.7656 21.2024C97.1037 20.9339 97.3539 20.581 97.5163 20.1435C97.6787 19.706 97.7599 19.232 97.7599 18.7216C97.7599 18.2112 97.6787 17.7356 97.5163 17.2947C97.3539 16.8539 97.1037 16.4976 96.7656 16.2259C96.4276 15.9541 95.9967 15.8182 95.473 15.8182C94.9493 15.8182 94.5185 15.9541 94.1804 16.2259C93.8423 16.4976 93.5921 16.8539 93.4297 17.2947C93.2673 17.7356 93.1861 18.2112 93.1861 18.7216C93.1861 19.232 93.2673 19.706 93.4297 20.1435C93.5921 20.581 93.8423 20.9339 94.1804 21.2024C94.5185 21.4709 94.9493 21.6051 95.473 21.6051ZM100.724 22.5V14.8636H101.858V16.017H101.937C102.077 15.6392 102.328 15.3326 102.693 15.0973C103.058 14.862 103.469 14.7443 103.926 14.7443C104.012 14.7443 104.12 14.746 104.249 14.7493C104.378 14.7526 104.476 14.7576 104.542 14.7642V15.9574C104.503 15.9474 104.412 15.9325 104.269 15.9126C104.13 15.8894 103.982 15.8778 103.827 15.8778C103.455 15.8778 103.124 15.9557 102.832 16.1115C102.544 16.264 102.315 16.4761 102.146 16.7479C101.98 17.0163 101.898 17.3229 101.898 17.6676V22.5H100.724ZM105.933 22.5V14.8636H107.107V22.5H105.933ZM106.53 13.5909C106.301 13.5909 106.104 13.513 105.938 13.3572C105.776 13.2015 105.695 13.0142 105.695 12.7955C105.695 12.5767 105.776 12.3894 105.938 12.2337C106.104 12.0779 106.301 12 106.53 12C106.759 12 106.954 12.0779 107.116 12.2337C107.282 12.3894 107.365 12.5767 107.365 12.7955C107.365 13.0142 107.282 13.2015 107.116 13.3572C106.954 13.513 106.759 13.5909 106.53 13.5909ZM112.457 22.6591C111.721 22.6591 111.087 22.4967 110.553 22.1719C110.023 21.8438 109.613 21.3864 109.325 20.7997C109.04 20.2098 108.898 19.5237 108.898 18.7415C108.898 17.9593 109.04 17.2699 109.325 16.6733C109.613 16.0734 110.015 15.6061 110.528 15.2713C111.045 14.9332 111.648 14.7642 112.338 14.7642C112.736 14.7642 113.128 14.8305 113.516 14.9631C113.904 15.0956 114.257 15.3111 114.575 15.6094C114.893 15.9044 115.147 16.2955 115.336 16.7827C115.525 17.2699 115.619 17.8698 115.619 18.5824V19.0795H109.733V18.0653H114.426C114.426 17.6345 114.34 17.25 114.167 16.9119C113.998 16.5739 113.756 16.3071 113.442 16.1115C113.13 15.916 112.762 15.8182 112.338 15.8182C111.871 15.8182 111.466 15.9342 111.125 16.1662C110.787 16.3949 110.527 16.6932 110.344 17.0611C110.162 17.429 110.071 17.8234 110.071 18.2443V18.9205C110.071 19.4972 110.17 19.986 110.369 20.3871C110.571 20.7848 110.851 21.0881 111.209 21.2969C111.567 21.5024 111.983 21.6051 112.457 21.6051C112.765 21.6051 113.044 21.562 113.292 21.4759C113.544 21.3864 113.761 21.2538 113.944 21.0781C114.126 20.8991 114.267 20.6771 114.366 20.4119L115.5 20.7301C115.381 21.1146 115.18 21.4527 114.898 21.7443C114.617 22.0327 114.269 22.258 113.854 22.4205C113.44 22.5795 112.974 22.6591 112.457 22.6591ZM122.813 16.5739L121.759 16.8722C121.693 16.6965 121.595 16.5258 121.466 16.3601C121.34 16.1911 121.167 16.0518 120.949 15.9425C120.73 15.8331 120.45 15.7784 120.108 15.7784C119.641 15.7784 119.252 15.8861 118.94 16.1016C118.632 16.3137 118.478 16.5838 118.478 16.9119C118.478 17.2036 118.584 17.4339 118.796 17.603C119.008 17.772 119.34 17.9129 119.79 18.0256L120.924 18.304C121.607 18.4697 122.115 18.7232 122.45 19.0646C122.785 19.4027 122.952 19.8385 122.952 20.3722C122.952 20.8097 122.826 21.2008 122.574 21.5455C122.326 21.8902 121.978 22.1619 121.53 22.3608C121.083 22.5597 120.563 22.6591 119.969 22.6591C119.19 22.6591 118.546 22.4901 118.035 22.152C117.525 21.8139 117.202 21.3201 117.066 20.6705L118.18 20.392C118.286 20.803 118.486 21.1113 118.781 21.3168C119.079 21.5223 119.469 21.625 119.949 21.625C120.496 21.625 120.93 21.509 121.252 21.277C121.577 21.0417 121.739 20.7599 121.739 20.4318C121.739 20.1667 121.646 19.9446 121.461 19.7656C121.275 19.5833 120.99 19.4474 120.606 19.358L119.333 19.0597C118.634 18.8939 118.12 18.6371 117.792 18.2891C117.467 17.9377 117.305 17.4986 117.305 16.9716C117.305 16.5407 117.425 16.1596 117.667 15.8281C117.913 15.4967 118.246 15.2365 118.667 15.0476C119.091 14.8587 119.572 14.7642 120.108 14.7642C120.864 14.7642 121.457 14.9299 121.888 15.2614C122.323 15.5928 122.631 16.0303 122.813 16.5739Z" fill="white"/>
<defs>
<clipPath id="clip0_2_53">
<rect width="15.75" height="18" fill="white" transform="translate(16 8)"/>
</clipPath>
</defs>
</svg>
