<svg xmlns="http://www.w3.org/2000/svg" viewBox="0 0 64 64"><rect width="64" height="64" fill="rgba(255,255,255,0.1)" rx="6"/><path fill="#ff3e00" d="M45.067 18.763A10.99 10.99 0 0 0 30.349 15.6l-8.382 5.345a9.617 9.617 0 0 0-4.347 6.443 10.129 10.129 0 0 0 1 6.5 9.645 9.645 0 0 0-1.44 3.597 10.251 10.251 0 0 0 1.751 7.751A10.988 10.988 0 0 0 33.649 48.4l8.384-5.343a9.615 9.615 0 0 0 4.345-6.442 10.132 10.132 0 0 0-1-6.5 9.649 9.649 0 0 0 1.438-3.594 10.246 10.246 0 0 0-1.751-7.751"/><path fill="#fff" d="M29.53 45.687a6.66 6.66 0 0 1-7.148-2.649 6.164 6.164 0 0 1-1.053-4.661 5.831 5.831 0 0 1 .2-.783l.158-.482.43.315a10.81 10.81 0 0 0 3.279 1.639l.311.095-.029.311a1.878 1.878 0 0 0 .338 1.246 2.006 2.006 0 0 0 2.154.8 1.848 1.848 0 0 0 .514-.225l8.383-5.344a1.745 1.745 0 0 0 .788-1.167 1.862 1.862 0 0 0-.318-1.4 2.007 2.007 0 0 0-2.154-.8 1.85 1.85 0 0 0-.514.225l-3.2 2.039a6.127 6.127 0 0 1-1.7.748 6.66 6.66 0 0 1-7.148-2.65 6.162 6.162 0 0 1-1.053-4.661 5.783 5.783 0 0 1 2.615-3.881l8.384-5.343a6.117 6.117 0 0 1 1.7-.749 6.66 6.66 0 0 1 7.148 2.65 6.164 6.164 0 0 1 1.053 4.661 5.932 5.932 0 0 1-.2.783l-.158.482-.429-.315a10.805 10.805 0 0 0-3.279-1.639l-.312-.094.029-.311a1.883 1.883 0 0 0-.338-1.246 2.006 2.006 0 0 0-2.154-.8 1.848 1.848 0 0 0-.514.225l-8.386 5.344a1.742 1.742 0 0 0-.787 1.167 1.861 1.861 0 0 0 .317 1.405 2.007 2.007 0 0 0 2.154.8 1.856 1.856 0 0 0 .514-.225l3.2-2.038a6.1 6.1 0 0 1 1.7-.748 6.659 6.659 0 0 1 7.147 2.649 6.162 6.162 0 0 1 1.053 4.661 5.786 5.786 0 0 1-2.613 3.874l-8.384 5.341a6.113 6.113 0 0 1-1.7.749"/></svg>