<svg xmlns="http://www.w3.org/2000/svg" viewBox="0 0 64 64"><rect width="64" height="64" fill="rgba(255,255,255,0.1)" rx="6"/><path fill="#07b6d5" d="M31.608 21.198c-6.333.2-8.216 4.725-8.647 7.176a6.2 6.2 0 0 1 4.941-2.9c3.039 0 5.353 3.392 6.765 4.451a10.692 10.692 0 0 0 9.686 1.608c3.608-1.1 5.281-4.928 5.647-6.745-1.745 2.373-4.392 3.8-7.667 2.118-2.255-1.159-3.941-5.923-10.725-5.708Zm-8.961 10.765c-6.333.2-8.216 4.725-8.647 7.176a6.2 6.2 0 0 1 4.941-2.9c3.039 0 5.353 3.392 6.765 4.451a10.692 10.692 0 0 0 9.686 1.608c3.608-1.1 5.281-4.928 5.647-6.745-1.745 2.373-4.392 3.8-7.667 2.118-2.254-1.159-3.941-5.924-10.725-5.708Z"/></svg>