<svg width="114" height="34" viewBox="0 0 114 34" fill="none" xmlns="http://www.w3.org/2000/svg">
<rect width="114" height="34" rx="6" fill="white" fill-opacity="0.1"/>
<path d="M16 11.375C16 10.1322 17.0072 9.125 18.25 9.125H31.75C32.991 9.125 34 10.1322 34 11.375V22.625C34 23.866 32.991 24.875 31.75 24.875H18.25C17.0072 24.875 16 23.866 16 22.625V11.375ZM19.375 13.625C19.9973 13.625 20.5 13.1223 20.5 12.5C20.5 11.8777 19.9973 11.375 19.375 11.375C18.7538 11.375 18.25 11.8777 18.25 12.5C18.25 13.1223 18.7538 13.625 19.375 13.625ZM31.75 12.5C31.75 12.0324 31.3738 11.6562 30.9062 11.6562H22.4688C22.0012 11.6562 21.625 12.0324 21.625 12.5C21.625 12.9676 22.0012 13.3438 22.4688 13.3438H30.9062C31.3738 13.3438 31.75 12.9676 31.75 12.5Z" fill="white"/>
<path d="M47.0824 22.5L44.2983 12.3182H45.5511L47.679 20.6108H47.7784L49.946 12.3182H51.3381L53.5057 20.6108H53.6051L55.733 12.3182H56.9858L54.2017 22.5H52.929L50.6818 14.3864H50.6023L48.3551 22.5H47.0824ZM60.8537 22.6591C60.1179 22.6591 59.4832 22.4967 58.9496 22.1719C58.4193 21.8438 58.0099 21.3864 57.7216 20.7997C57.4366 20.2098 57.294 19.5237 57.294 18.7415C57.294 17.9593 57.4366 17.2699 57.7216 16.6733C58.0099 16.0734 58.411 15.6061 58.9247 15.2713C59.4418 14.9332 60.045 14.7642 60.7344 14.7642C61.1321 14.7642 61.5249 14.8305 61.9126 14.9631C62.3004 15.0956 62.6534 15.3111 62.9716 15.6094C63.2898 15.9044 63.5433 16.2955 63.7322 16.7827C63.9212 17.2699 64.0156 17.8698 64.0156 18.5824V19.0795H58.1293V18.0653H62.8224C62.8224 17.6345 62.7363 17.25 62.5639 16.9119C62.3949 16.5739 62.1529 16.3071 61.8381 16.1115C61.5265 15.916 61.1586 15.8182 60.7344 15.8182C60.267 15.8182 59.8627 15.9342 59.5213 16.1662C59.1832 16.3949 58.9231 16.6932 58.7408 17.0611C58.5585 17.429 58.4673 17.8234 58.4673 18.2443V18.9205C58.4673 19.4972 58.5668 19.986 58.7656 20.3871C58.9678 20.7848 59.2479 21.0881 59.6058 21.2969C59.9638 21.5024 60.3797 21.6051 60.8537 21.6051C61.1619 21.6051 61.4403 21.562 61.6889 21.4759C61.9408 21.3864 62.1579 21.2538 62.3402 21.0781C62.5225 20.8991 62.6634 20.6771 62.7628 20.4119L63.8963 20.7301C63.777 21.1146 63.5765 21.4527 63.2947 21.7443C63.013 22.0327 62.665 22.258 62.2507 22.4205C61.8364 22.5795 61.3707 22.6591 60.8537 22.6591ZM65.9595 22.5V12.3182H67.1328V16.0767H67.2322C67.3184 15.9441 67.4377 15.7751 67.5902 15.5696C67.746 15.3608 67.968 15.1752 68.2564 15.0128C68.5481 14.8471 68.9425 14.7642 69.4396 14.7642C70.0826 14.7642 70.6494 14.925 71.1399 15.2464C71.6304 15.5679 72.0133 16.0237 72.2884 16.6136C72.5634 17.2036 72.701 17.8996 72.701 18.7017C72.701 19.5104 72.5634 20.2114 72.2884 20.8047C72.0133 21.3946 71.6321 21.852 71.1449 22.1768C70.6577 22.4983 70.0959 22.6591 69.4595 22.6591C68.969 22.6591 68.5762 22.5779 68.2812 22.4155C67.9863 22.2498 67.7592 22.0625 67.6001 21.8537C67.4411 21.6416 67.3184 21.4659 67.2322 21.3267H67.093V22.5H65.9595ZM67.1129 18.6818C67.1129 19.2585 67.1974 19.7673 67.3665 20.2081C67.5355 20.6456 67.7824 20.9886 68.1072 21.2372C68.4321 21.4825 68.8298 21.6051 69.3004 21.6051C69.791 21.6051 70.2003 21.4759 70.5284 21.2173C70.8598 20.9555 71.1084 20.6042 71.2741 20.1634C71.4432 19.7192 71.5277 19.2254 71.5277 18.6818C71.5277 18.1449 71.4448 17.661 71.2791 17.2301C71.1167 16.7959 70.8698 16.4529 70.5384 16.201C70.2102 15.9458 69.7976 15.8182 69.3004 15.8182C68.8232 15.8182 68.4221 15.9392 68.0973 16.1811C67.7725 16.4197 67.5272 16.7545 67.3615 17.1854C67.1958 17.6129 67.1129 18.1117 67.1129 18.6818ZM79.9048 16.5739L78.8509 16.8722C78.7846 16.6965 78.6868 16.5258 78.5575 16.3601C78.4316 16.1911 78.2592 16.0518 78.0405 15.9425C77.8217 15.8331 77.5417 15.7784 77.2003 15.7784C76.733 15.7784 76.3435 15.8861 76.032 16.1016C75.7237 16.3137 75.5696 16.5838 75.5696 16.9119C75.5696 17.2036 75.6757 17.4339 75.8878 17.603C76.0999 17.772 76.4313 17.9129 76.8821 18.0256L78.0156 18.304C78.6984 18.4697 79.2071 18.7232 79.5419 19.0646C79.8767 19.4027 80.044 19.8385 80.044 20.3722C80.044 20.8097 79.9181 21.2008 79.6662 21.5455C79.4176 21.8902 79.0696 22.1619 78.6222 22.3608C78.1747 22.5597 77.6544 22.6591 77.0611 22.6591C76.2822 22.6591 75.6375 22.4901 75.1271 22.152C74.6167 21.8139 74.2936 21.3201 74.1577 20.6705L75.2713 20.392C75.3774 20.803 75.5779 21.1113 75.8729 21.3168C76.1712 21.5223 76.5606 21.625 77.0412 21.625C77.5881 21.625 78.0223 21.509 78.3438 21.277C78.6686 21.0417 78.831 20.7599 78.831 20.4318C78.831 20.1667 78.7382 19.9446 78.5526 19.7656C78.367 19.5833 78.0819 19.4474 77.6974 19.358L76.4247 19.0597C75.7254 18.8939 75.2116 18.6371 74.8835 18.2891C74.5587 17.9377 74.3963 17.4986 74.3963 16.9716C74.3963 16.5407 74.5173 16.1596 74.7592 15.8281C75.0045 15.4967 75.3376 15.2365 75.7585 15.0476C76.1828 14.8587 76.6634 14.7642 77.2003 14.7642C77.956 14.7642 78.5492 14.9299 78.9801 15.2614C79.4143 15.5928 79.7225 16.0303 79.9048 16.5739ZM81.8102 22.5V14.8636H82.9835V22.5H81.8102ZM82.4068 13.5909C82.1781 13.5909 81.9809 13.513 81.8152 13.3572C81.6528 13.2015 81.5716 13.0142 81.5716 12.7955C81.5716 12.5767 81.6528 12.3894 81.8152 12.2337C81.9809 12.0779 82.1781 12 82.4068 12C82.6355 12 82.831 12.0779 82.9934 12.2337C83.1592 12.3894 83.242 12.5767 83.242 12.7955C83.242 13.0142 83.1592 13.2015 82.9934 13.3572C82.831 13.513 82.6355 13.5909 82.4068 13.5909ZM88.4535 14.8636V15.858H84.4961V14.8636H88.4535ZM85.6495 13.0341H86.8228V20.3125C86.8228 20.6439 86.8709 20.8925 86.967 21.0582C87.0664 21.2206 87.1924 21.33 87.3448 21.3864C87.5006 21.4394 87.6647 21.4659 87.837 21.4659C87.9663 21.4659 88.0723 21.4593 88.1552 21.446C88.238 21.4295 88.3043 21.4162 88.354 21.4062L88.5927 22.4602C88.5131 22.4901 88.4021 22.5199 88.2596 22.5497C88.1171 22.5829 87.9364 22.5994 87.7177 22.5994C87.3862 22.5994 87.0614 22.5282 86.7433 22.3857C86.4284 22.2431 86.1665 22.026 85.9577 21.7344C85.7522 21.4427 85.6495 21.0748 85.6495 20.6307V13.0341ZM93.3381 22.6591C92.6023 22.6591 91.9676 22.4967 91.4339 22.1719C90.9036 21.8438 90.4943 21.3864 90.206 20.7997C89.9209 20.2098 89.7784 19.5237 89.7784 18.7415C89.7784 17.9593 89.9209 17.2699 90.206 16.6733C90.4943 16.0734 90.8954 15.6061 91.4091 15.2713C91.9261 14.9332 92.5294 14.7642 93.2188 14.7642C93.6165 14.7642 94.0092 14.8305 94.397 14.9631C94.7848 15.0956 95.1378 15.3111 95.456 15.6094C95.7741 15.9044 96.0277 16.2955 96.2166 16.7827C96.4055 17.2699 96.5 17.8698 96.5 18.5824V19.0795H90.6136V18.0653H95.3068C95.3068 17.6345 95.2206 17.25 95.0483 16.9119C94.8793 16.5739 94.6373 16.3071 94.3224 16.1115C94.0109 15.916 93.643 15.8182 93.2188 15.8182C92.7514 15.8182 92.3471 15.9342 92.0057 16.1662C91.6676 16.3949 91.4074 16.6932 91.2251 17.0611C91.0429 17.429 90.9517 17.8234 90.9517 18.2443V18.9205C90.9517 19.4972 91.0511 19.986 91.25 20.3871C91.4522 20.7848 91.7322 21.0881 92.0902 21.2969C92.4482 21.5024 92.8641 21.6051 93.3381 21.6051C93.6463 21.6051 93.9247 21.562 94.1733 21.4759C94.4252 21.3864 94.6423 21.2538 94.8246 21.0781C95.0069 20.8991 95.1477 20.6771 95.2472 20.4119L96.3807 20.7301C96.2614 21.1146 96.0608 21.4527 95.7791 21.7443C95.4974 22.0327 95.1494 22.258 94.7351 22.4205C94.3208 22.5795 93.8551 22.6591 93.3381 22.6591Z" fill="white"/>
</svg>
